<svg width="100" height="100" viewBox="0 0 100 100" fill="none" xmlns="http://www.w3.org/2000/svg">
<path d="M50.5343 58.4374C49.0312 59.128 47.3843 60.028 44.0874 61.8374C42.8374 62.5405 41.5312 63.2437 40.3155 63.9062C40.2312 63.8218 40.1437 63.7155 40.0593 63.628C33.5374 56.6593 21.4749 51.7374 21.9874 42.378C22.178 38.9687 23.3499 30.0187 45.153 19.1499C63.0968 10.3062 77.3749 12.7562 79.8405 18.1905C83.3843 25.9374 72.1874 40.353 53.6562 42.4437C51.6052 42.8597 49.487 42.8094 47.458 42.2967C45.4291 41.7839 43.5413 40.8217 41.9343 39.4812C40.953 38.4155 40.8062 38.353 40.4437 38.5655C39.8468 38.878 40.2312 39.8437 40.4437 40.3968C41.1505 41.6766 42.1068 42.8017 43.256 43.7056C44.4052 44.6095 45.724 45.2738 47.1343 45.6593C54.4268 47.2355 62.0302 46.4824 68.8718 43.5062C80.103 39.1593 88.8718 27.0749 86.303 16.9437C83.7249 6.67179 66.6749 3.28429 50.5437 9.01554C40.4414 12.4199 31.1078 17.779 23.0749 24.7874C14.1874 33.0999 12.7812 40.3249 13.3562 43.3499C15.4249 54.0905 30.2312 61.0812 36.1687 66.2593C35.8562 66.4312 35.5937 66.5718 35.3593 66.7062C32.3968 68.178 21.103 74.0812 18.2874 80.3249C15.0905 87.3999 18.7999 92.4718 21.2499 93.153C24.9421 94.0374 28.8182 93.7467 32.3371 92.3214C35.8561 90.8962 38.842 88.4075 40.878 85.203C42.607 82.5458 43.6687 79.5103 43.9729 76.3546C44.277 73.199 43.8146 70.0166 42.6249 67.078C43.3268 66.5182 44.0754 66.0195 44.8624 65.5874C46.3749 64.6937 47.8155 63.8124 49.0937 63.1312C53.4698 61.0814 58.2456 60.0259 63.078 60.0405C73.2218 61.2343 75.2249 67.5624 74.8405 70.228C74.6607 71.1738 74.2804 72.0701 73.7252 72.8565C73.17 73.643 72.4528 74.3014 71.6218 74.7874C70.9187 75.2343 70.6843 75.3843 70.7468 75.703C70.8312 76.1718 71.1718 76.1499 71.7687 76.0655C73.2927 75.5839 74.6354 74.6525 75.6203 73.3937C76.6053 72.1349 77.1864 70.6076 77.2874 69.0124C77.5999 62.7624 71.6405 55.9062 61.0905 55.9687C57.9315 55.9741 54.8041 56.5973 51.8843 57.803C51.4155 57.9968 50.9603 58.2051 50.5187 58.428L50.5343 58.4374ZM35.4562 82.9343C32.0874 86.5999 27.3999 87.9843 25.3749 86.8124C23.1874 85.5624 24.053 80.1405 28.1874 76.2624C30.636 74.0562 33.2826 72.0801 36.0937 70.3593C36.5843 70.0468 37.3093 69.6343 38.1812 69.1093C38.3312 69.0249 38.4155 68.9812 38.4155 68.9812L38.928 68.6687C39.6654 71.1409 39.7325 73.7646 39.1224 76.2713C38.5124 78.7779 37.2471 81.0774 35.4562 82.9343Z" fill="#CD6799"/>
</svg>
